<?xml version="1.0" standalone="no"?>
<!DOCTYPE svg PUBLIC "-//W3C//DTD SVG 20010904//EN"
 "http://www.w3.org/TR/2001/REC-SVG-20010904/DTD/svg10.dtd">
<svg version="1.0" xmlns="http://www.w3.org/2000/svg"
 width="1024.000000pt" height="1024.000000pt" viewBox="0 0 1024.000000 1024.000000"
 preserveAspectRatio="xMidYMid meet">
<metadata>
Created by potrace 1.14, written by Peter Selinger 2001-2017
</metadata>
<g transform="translate(0.000000,1024.000000) scale(0.100000,-0.100000)"
fill="#000000" stroke="none">
<path d="M2009 10213 c-1 -16 -2 -42 -3 -59 -1 -17 4 -60 11 -95 7 -35 15 -75
17 -89 3 -14 7 -38 11 -55 4 -16 7 -38 8 -47 1 -10 4 -18 7 -18 3 0 6 -10 7
-22 1 -11 8 -25 15 -29 7 -5 9 -9 4 -9 -5 0 -3 -7 4 -15 7 -8 9 -15 6 -15 -4
0 7 -20 24 -44 16 -25 30 -49 30 -54 0 -6 4 -12 8 -14 4 -1 23 -33 41 -70 18
-38 37 -68 42 -68 5 0 8 -3 7 -7 -3 -15 23 -66 52 -103 17 -21 30 -42 30 -46
0 -8 14 -21 105 -98 17 -14 35 -26 41 -26 6 0 17 -7 24 -15 7 -8 16 -13 20
-10 5 3 10 1 12 -5 1 -5 64 -41 140 -79 l136 -69 -45 -24 -44 -25 48 -18 c26
-10 55 -19 63 -20 8 -1 22 -5 30 -9 8 -3 40 -9 70 -14 63 -8 75 -27 41 -64
-21 -22 -39 -72 -46 -127 -6 -51 -39 -98 -152 -218 -119 -126 -149 -159 -173
-189 -71 -88 -108 -136 -125 -160 -21 -29 -75 -98 -98 -124 -7 -8 -21 -28 -32
-45 -10 -16 -27 -38 -37 -49 -10 -11 -18 -23 -18 -28 0 -4 0 -10 0 -13 0 -2
-12 -17 -25 -31 -14 -15 -25 -31 -25 -35 0 -4 -13 -28 -30 -52 -17 -25 -30
-48 -30 -51 0 -8 -19 -32 -43 -54 -22 -20 -72 -124 -81 -167 -3 -16 -8 -52
-12 -80 -13 -117 -18 -130 -64 -179 -21 -23 -48 -54 -61 -69 -13 -16 -37 -41
-52 -58 -16 -16 -26 -29 -23 -29 3 0 -5 -10 -17 -23 -53 -55 -110 -119 -158
-178 -29 -35 -58 -67 -63 -71 -6 -4 -7 -8 -3 -8 4 0 -4 -12 -18 -27 -14 -15
-25 -33 -25 -40 0 -7 -4 -13 -9 -13 -5 0 -13 -9 -16 -20 -4 -11 -23 -48 -44
-83 -56 -94 -139 -292 -133 -318 0 -3 -5 -28 -11 -55 -14 -54 -14 -65 -3 -142
9 -62 14 -62 21 0 8 64 11 78 29 121 9 20 13 37 9 37 -5 0 -3 4 3 8 6 4 21 33
34 65 13 31 28 57 32 57 5 0 6 5 3 10 -3 6 -1 10 4 10 6 0 11 5 11 11 0 12 59
104 102 160 15 20 25 39 23 43 -3 3 -2 4 1 2 8 -6 94 80 94 94 0 6 4 9 9 5 6
-3 13 0 18 7 4 7 26 26 48 43 22 16 42 33 43 37 2 4 10 8 18 8 8 0 14 4 14 9
0 5 10 13 23 17 12 4 24 10 27 14 3 4 44 32 91 63 48 31 94 63 102 72 9 8 19
15 24 15 4 0 18 11 31 25 40 42 50 25 46 -78 -11 -252 -14 -318 -20 -382 -9
-96 -9 -97 -21 -120 -6 -11 -9 -28 -8 -37 2 -10 -1 -18 -6 -18 -5 0 -9 -9 -9
-20 0 -11 -3 -20 -7 -20 -12 0 -33 -52 -26 -63 3 -6 1 -7 -5 -3 -6 3 -13 -3
-17 -14 -3 -11 -13 -20 -21 -20 -13 0 -19 -13 -14 -35 1 -5 -2 -7 -5 -3 -9 9
-95 -93 -89 -104 3 -4 -3 -5 -12 -1 -11 4 -15 3 -10 -5 3 -6 -2 -13 -13 -17
-11 -3 -23 -15 -26 -26 -4 -10 -11 -16 -17 -13 -7 4 -8 2 -4 -4 4 -6 13 -9 21
-6 8 4 12 10 9 15 -3 5 2 6 11 3 13 -6 13 -8 -3 -23 -10 -9 -17 -22 -15 -28 3
-7 0 -13 -5 -13 -5 0 -13 -11 -16 -25 -4 -14 -11 -25 -16 -25 -6 0 -10 -6 -10
-12 0 -7 -18 -47 -40 -88 -71 -135 -104 -205 -102 -212 1 -5 -2 -8 -7 -8 -5 0
-15 -16 -22 -35 -7 -19 -16 -35 -20 -35 -4 0 -10 -11 -13 -25 -4 -14 -11 -25
-16 -25 -6 0 -10 -6 -10 -13 0 -7 -7 -22 -15 -32 -8 -11 -56 -76 -107 -145
-51 -69 -108 -141 -126 -160 -85 -90 -107 -110 -115 -110 -21 0 -107 -74 -107
-93 0 -4 6 -5 13 -1 9 6 9 5 0 -8 -7 -8 -10 -18 -6 -21 3 -4 0 -7 -8 -7 -11
-1 -10 -3 2 -10 13 -7 16 -24 14 -77 -2 -37 -5 -77 -8 -88 -3 -11 -6 -28 -6
-37 -1 -9 -7 -23 -13 -30 -12 -12 -16 -23 -22 -53 -1 -5 -7 -20 -14 -31 -6
-12 -8 -24 -5 -28 3 -3 2 -6 -4 -6 -6 0 -15 -12 -21 -28 -5 -15 -29 -52 -54
-82 -24 -30 -61 -80 -83 -110 -21 -30 -52 -70 -69 -89 -29 -33 -28 -32 21 7
28 24 66 59 84 80 18 20 36 36 40 35 3 -1 12 9 19 22 7 14 19 25 27 25 7 0 13
7 13 15 0 7 6 18 13 22 7 4 26 26 43 48 16 22 41 53 57 69 15 16 27 35 27 43
0 8 5 11 10 8 10 -6 14 7 10 34 -1 12 0 12 12 0 10 -10 14 -46 15 -124 1 -96
5 -136 29 -253 2 -13 16 -52 29 -88 13 -35 27 -93 30 -127 3 -34 7 -73 10 -87
3 -14 8 -41 11 -60 9 -47 57 -184 85 -239 22 -46 49 -80 49 -62 0 5 -4 12 -9
15 -9 6 -23 61 -26 106 -1 14 -3 27 -5 30 -6 11 -5 390 1 390 4 0 13 29 20 65
7 35 16 62 21 59 4 -3 8 1 8 8 0 12 37 87 74 153 61 106 78 134 96 152 11 12
20 26 20 31 0 5 9 17 20 27 11 10 17 22 14 26 -3 5 2 9 10 9 9 0 16 4 16 10 0
15 143 160 157 160 7 0 12 3 10 8 -1 4 2 8 6 9 16 4 87 85 87 99 0 8 3 14 8
14 4 0 19 21 34 48 15 26 35 56 45 67 10 11 25 35 32 52 7 18 18 30 24 26 7
-4 8 1 4 13 -5 14 -2 12 12 -6 11 -14 16 -29 11 -35 -4 -5 -8 -13 -8 -18 0 -4
-3 -38 -7 -75 -12 -119 -8 -255 10 -352 22 -121 22 -126 12 -180 -5 -25 -10
-61 -11 -81 -2 -20 -6 -41 -10 -47 -3 -6 -2 -13 4 -17 6 -4 7 -11 4 -17 -4 -6
-8 -21 -9 -32 -4 -28 -13 -86 -20 -116 -3 -14 -8 -43 -10 -65 -4 -33 -15 -93
-23 -127 -1 -5 -2 -16 -2 -25 0 -10 -4 -24 -9 -32 -8 -12 -11 -12 -23 0 -8 8
-15 17 -16 22 -1 4 -19 42 -41 85 -22 43 -41 93 -44 110 -3 18 -12 43 -19 55
-13 20 -24 56 -44 142 -3 17 -8 73 -9 125 -4 124 -6 133 -15 85 -8 -39 -6
-219 3 -280 15 -97 79 -275 99 -275 5 0 7 -4 4 -8 -2 -4 18 -34 45 -66 54 -64
58 -81 29 -118 -10 -14 -16 -28 -13 -32 3 -3 1 -6 -6 -6 -7 0 -43 -31 -82 -70
-38 -38 -69 -68 -69 -66 0 12 -77 -73 -87 -96 -7 -16 -17 -28 -23 -28 -5 0
-10 -4 -10 -10 0 -5 -8 -19 -17 -30 -22 -25 -87 -138 -115 -200 -11 -25 -30
-65 -41 -90 -12 -25 -22 -48 -22 -52 0 -4 -8 -16 -17 -28 -10 -11 -14 -20 -10
-20 4 0 2 -4 -4 -8 -7 -4 -24 -29 -40 -57 -17 -32 -21 -45 -11 -36 15 12 17
11 17 -3 0 -9 5 -16 10 -16 7 0 7 -8 -1 -22 l-12 -23 23 20 23 20 -12 -22
c-14 -28 -14 -76 1 -91 9 -9 7 -11 -10 -7 -15 2 -19 0 -15 -11 3 -8 0 -20 -6
-28 -6 -7 -7 -17 -3 -22 4 -5 3 -6 -2 -2 -12 10 -39 -28 -31 -42 3 -6 2 -10
-3 -10 -12 0 -66 -88 -83 -134 -7 -20 -16 -36 -20 -36 -6 0 -20 -29 -24 -50 0
-3 -8 -18 -17 -35 -36 -68 -65 -175 -47 -175 8 0 13 15 10 32 0 5 6 8 14 8 8
0 19 9 25 20 6 11 15 18 20 15 5 -3 13 3 19 12 6 10 11 14 11 9 0 -6 13 3 29
18 16 16 34 25 40 22 6 -4 9 -1 5 7 -3 8 -1 18 5 22 7 3 8 0 5 -9 -3 -9 -2
-16 2 -16 5 0 9 -11 9 -25 0 -14 -3 -25 -7 -25 -5 0 -16 -22 -23 -50 -1 -3 -4
-12 -8 -20 -42 -109 -49 -153 -52 -370 -2 -150 -7 -215 -16 -215 -1 0 -3 -9
-5 -20 -11 -61 -14 -100 -19 -193 -3 -57 -8 -108 -11 -113 -3 -5 -2 -9 3 -9 4
0 8 -48 9 -108 1 -171 25 -316 89 -555 40 -146 49 -167 99 -221 20 -21 36 -43
36 -49 0 -6 3 -8 6 -4 4 3 15 -4 25 -16 10 -12 19 -17 19 -12 0 6 9 -3 19 -18
10 -16 20 -27 23 -25 5 4 68 -49 68 -58 0 -4 10 -15 22 -25 11 -11 17 -19 13
-19 -5 0 10 -12 32 -27 23 -15 40 -30 37 -34 -2 -5 5 -6 16 -4 11 2 20 -1 20
-6 0 -6 5 -7 12 -3 18 11 69 6 87 -9 12 -10 13 -9 7 1 -7 11 -1 13 30 8 116
-18 157 -19 149 -5 -6 11 -5 12 6 1 7 -6 28 -12 47 -12 18 0 31 -4 28 -8 -3
-5 20 -10 50 -11 41 -1 54 2 48 10 -5 9 -2 10 9 6 10 -3 17 -2 17 4 0 6 4 8 9
5 4 -3 17 2 27 10 17 14 17 15 1 10 -10 -3 -15 -2 -12 3 3 6 14 9 26 8 17 -1
19 -6 12 -32 -4 -16 -7 -40 -7 -52 -1 -12 -3 -19 -5 -17 -7 7 -31 -70 -26 -83
2 -7 1 -13 -3 -13 -8 0 -12 -22 -15 -75 l-2 -30 3268 0 3269 0 13 38 c7 21 13
40 14 42 5 18 18 48 42 103 15 34 26 62 24 62 -2 0 5 24 16 52 21 58 25 104 9
110 -20 6 -19 108 2 172 15 45 31 71 61 99 55 49 76 67 80 66 9 -3 55 26 51
32 -3 5 1 9 9 9 8 0 27 11 43 25 37 33 47 39 63 43 7 1 20 9 28 17 8 8 21 15
29 15 8 0 14 4 14 8 0 5 9 19 20 32 11 12 17 27 14 31 -3 5 0 9 6 9 7 0 9 19
5 58 -3 31 -7 68 -8 82 -1 14 10 68 25 120 35 119 40 140 42 168 0 12 4 22 8
22 4 0 5 30 2 68 -3 37 -7 85 -8 108 -2 23 -7 47 -11 54 -6 9 -4 11 4 5 10 -6
11 -3 2 14 -7 11 -9 21 -5 21 3 0 -1 11 -10 25 -9 14 -13 25 -9 25 5 0 3 4 -2
8 -16 11 -65 90 -65 105 0 7 -7 23 -16 35 -8 12 -10 22 -5 22 6 0 10 3 9 8 -2
4 -1 7 2 8 12 1 141 133 176 178 45 61 50 97 18 131 -13 14 -24 30 -24 34 0
14 -248 242 -260 238 -5 -1 -33 21 -64 48 -6 6 -27 22 -46 35 -19 13 -37 27
-40 30 -9 10 -125 96 -215 160 -49 35 -92 67 -95 70 -21 24 -166 101 -175 92
-5 -4 -5 -2 -2 4 6 11 -79 50 -129 59 -10 2 -19 4 -19 5 0 3 -50 10 -84 11
-18 0 -37 -5 -42 -12 -5 -8 -9 -10 -9 -5 0 5 -6 3 -14 -3 -10 -8 -16 -9 -21
-1 -4 6 -1 9 7 8 8 -2 12 5 10 20 -2 12 23 74 56 141 33 66 58 122 54 125 -3
3 0 6 6 6 10 0 29 45 37 93 3 13 11 43 19 66 9 22 13 41 9 41 -3 0 0 6 6 13
31 39 32 269 1 382 -23 86 -58 175 -69 175 -3 0 -12 14 -20 32 -20 43 -96 153
-145 208 -23 25 -66 74 -96 109 -30 35 -59 69 -66 75 -20 20 -30 50 -28 81 1
17 3 30 4 30 1 0 3 7 5 15 2 8 6 24 9 35 16 58 22 93 21 117 -1 15 3 24 8 21
5 -3 7 3 4 13 -3 11 -9 39 -13 64 -4 25 -8 47 -9 50 -4 11 -17 47 -28 70 -6
14 -12 28 -14 31 -3 8 27 5 52 -6 11 -5 30 -22 44 -38 18 -22 26 -25 32 -15 7
10 9 10 9 1 0 -7 9 -13 20 -13 11 0 20 -4 20 -10 0 -5 7 -7 15 -4 8 4 15 2 15
-3 0 -13 49 -35 61 -28 5 4 9 1 9 -4 0 -6 5 -11 10 -11 6 0 29 -8 53 -19 50
-22 127 -41 127 -32 0 7 -72 36 -79 32 -2 -2 -7 3 -12 11 -5 7 -12 13 -16 13
-8 1 -59 28 -98 52 -11 7 -29 16 -40 22 -12 5 -27 16 -34 25 -7 9 -20 16 -27
16 -8 0 -14 5 -14 10 0 6 -6 10 -14 10 -12 0 -186 162 -186 174 0 2 -25 30
-56 63 -31 32 -76 84 -101 116 -25 31 -50 57 -54 57 -5 0 -9 5 -9 11 0 6 -18
31 -39 57 -68 82 -88 127 -68 159 4 6 3 14 -3 18 -6 4 -7 12 -3 18 4 7 8 17 9
22 1 6 5 25 9 44 3 19 8 38 11 42 2 4 7 34 10 65 3 32 8 62 10 66 3 4 -1 8 -8
8 -8 0 -9 3 -3 8 13 9 14 142 2 142 -5 0 -3 8 4 17 12 15 12 16 -1 8 -12 -7
-13 -6 -3 7 7 8 10 18 6 21 -3 4 -1 7 6 7 9 0 9 5 1 20 -8 16 -8 20 2 18 7 -2
12 2 11 9 -2 7 4 10 12 7 8 -4 12 -10 9 -15 -3 -5 3 -9 13 -9 15 0 16 -2 3
-10 -12 -8 -12 -10 5 -11 11 0 14 -3 7 -6 -10 -4 -10 -8 -1 -19 6 -8 8 -14 4
-14 -4 0 -2 -7 6 -16 14 -17 17 -153 4 -214 -4 -19 -8 -43 -8 -52 -1 -10 -5
-18 -9 -18 -4 0 -8 -11 -8 -25 0 -14 -7 -42 -16 -63 l-15 -37 35 34 c20 19 36
39 36 44 0 5 10 18 22 28 11 11 18 19 15 19 -3 0 5 12 18 26 14 15 25 35 25
45 0 10 4 20 9 24 9 5 37 80 47 126 17 83 22 115 19 131 -2 10 0 20 4 22 4 3
8 24 9 46 1 23 4 46 8 51 3 5 -1 9 -8 9 -8 0 -9 3 -3 8 6 4 10 39 10 77 0 39
3 75 8 82 4 6 3 14 -3 18 -8 5 -8 11 1 21 7 9 8 14 1 14 -11 0 -11 18 1 38 5
6 4 12 -2 12 -10 0 -10 18 2 36 3 6 3 14 0 18 -4 4 -8 23 -9 44 -1 20 -5 66
-9 102 -4 36 -9 83 -10 105 -2 22 -6 58 -10 80 -6 39 -8 57 -21 180 -3 33 -8
63 -9 66 -2 3 -5 26 -6 52 -2 26 -6 47 -9 47 -4 0 -6 40 -6 88 1 70 5 92 19
106 9 10 15 22 12 27 -4 5 -2 9 3 9 28 0 75 201 54 235 -20 32 0 66 47 80 14
4 36 18 50 31 14 13 29 24 33 24 6 0 132 81 155 100 7 5 14 10 17 10 8 0 136
90 191 134 144 115 260 286 302 441 1 6 7 30 13 55 6 25 13 53 16 64 4 13 2
16 -6 11 -9 -5 -10 -3 -2 11 5 11 8 37 7 59 -1 24 8 62 23 95 38 87 60 160 50
166 -4 3 -30 4 -56 3 -38 -3 -47 0 -50 14 -2 9 1 17 7 17 6 0 11 7 11 15 0 8
5 15 10 15 6 0 10 7 10 16 0 8 3 13 8 11 4 -3 13 1 20 9 10 11 10 14 0 14 -8
0 -6 5 5 11 9 6 15 14 12 18 -2 5 2 14 10 21 8 7 12 16 9 21 -3 5 2 12 10 15
9 3 13 10 10 15 -3 5 0 9 6 9 6 0 8 5 5 10 -3 6 -2 10 4 10 5 0 13 9 16 20 4
11 10 18 14 15 5 -2 7 7 5 20 -1 14 2 25 7 25 5 0 9 7 9 16 0 15 38 92 50 104
3 3 17 21 30 40 13 19 27 37 30 40 3 3 16 18 30 33 l24 28 -40 -7 c-32 -5 -42
-3 -47 10 -3 8 1 22 9 31 9 8 13 15 10 15 -3 0 3 19 13 43 10 23 17 50 15 60
-1 9 1 17 6 17 5 0 7 8 5 18 -1 9 2 23 7 29 11 14 7 198 -5 209 -7 7 -67 -13
-155 -52 -29 -13 -57 -24 -62 -24 -6 0 -18 -4 -28 -10 -25 -14 -102 -41 -137
-47 -16 -3 -33 -11 -37 -17 -6 -8 -8 -7 -8 1 0 9 -6 10 -22 3 -13 -5 -93 -23
-178 -40 -240 -48 -327 -76 -620 -200 -74 -32 -151 -60 -170 -64 -19 -3 -46
-8 -60 -11 -14 -3 -52 -10 -85 -16 -103 -18 -224 -55 -309 -93 -141 -63 -193
-86 -201 -86 -4 0 -51 33 -104 73 -53 40 -143 104 -201 141 -58 38 -116 76
-130 85 -42 28 -235 121 -251 121 -8 0 -19 4 -24 9 -10 10 -88 39 -190 71 -51
16 -98 28 -230 56 -44 9 -133 23 -185 29 -30 4 -58 9 -61 11 -37 22 -571 22
-608 0 -3 -2 -31 -7 -61 -11 -30 -4 -58 -9 -62 -11 -6 -4 -187 -24 -248 -28
-22 -1 -26 6 -42 64 -10 36 -20 73 -23 83 -8 36 -16 62 -25 82 -4 11 -11 28
-14 38 -5 16 -77 17 -1331 17 l-1325 0 -1 -27z m461 -2950 c0 -14 2 -15 9 -4
6 9 10 2 13 -23 2 -20 -1 -41 -6 -46 -6 -6 -6 -10 -2 -10 5 0 2 -8 -5 -17 -10
-12 -11 -15 -1 -9 7 4 4 -7 -7 -25 -11 -18 -18 -36 -15 -41 3 -4 0 -8 -7 -8
-7 0 -9 -3 -6 -7 4 -3 2 -12 -4 -20 -9 -9 -8 -13 0 -13 8 0 7 -7 -3 -22 -7
-13 -13 -33 -12 -45 2 -15 -2 -20 -13 -15 -9 3 -13 2 -9 -2 6 -8 -13 -83 -35
-135 -5 -14 -10 -29 -9 -33 1 -5 -2 -8 -8 -8 -5 0 -7 -6 -4 -13 3 -8 -4 -13
-18 -14 -13 -1 -18 1 -13 5 13 9 13 52 1 71 -6 10 -6 12 3 7 8 -5 11 2 10 21
0 15 2 39 5 53 3 14 8 37 12 53 3 15 9 27 13 27 4 0 7 18 8 41 1 22 7 47 13
54 7 8 9 19 6 24 -4 5 -1 13 5 17 8 5 9 3 4 -6 -5 -9 -4 -11 4 -6 9 6 9 11 -1
24 -11 13 -11 14 1 7 11 -6 13 -4 8 8 -4 10 -2 17 5 17 6 0 5 6 -3 17 -10 11
-10 14 -1 9 11 -7 14 -3 16 27 1 16 19 36 28 30 4 -2 5 3 2 11 -3 9 -1 16 5
16 6 0 11 -8 11 -17z m4960 -3004 c0 -15 5 -18 25 -15 14 3 23 1 20 -5 -4 -5
-2 -9 3 -9 13 0 132 -120 132 -132 0 -5 5 -6 10 -3 6 3 10 2 10 -2 0 -5 15
-26 33 -46 17 -20 43 -51 57 -68 14 -17 33 -41 43 -52 11 -12 28 -39 38 -59
22 -43 24 -44 45 -23 9 8 12 15 8 15 -3 0 -1 7 6 15 7 8 9 15 4 15 -5 0 -3 4
5 9 8 5 16 17 17 25 1 9 -2 14 -7 10 -5 -3 -9 2 -9 10 0 9 -5 16 -11 16 -8 0
-8 5 1 15 9 11 9 15 1 15 -7 0 -10 4 -6 9 3 5 1 12 -4 15 -5 4 -8 17 -6 31 1
14 -1 25 -5 25 -12 0 -10 64 3 79 9 12 9 13 0 7 -8 -4 -13 -1 -13 9 0 9 5 13
11 9 6 -3 3 5 -6 20 -10 15 -15 29 -11 33 3 3 6 1 6 -5 0 -7 6 -11 13 -10 6 2
11 -3 10 -9 -2 -7 2 -13 8 -13 5 0 7 -4 4 -10 -3 -5 2 -10 12 -10 14 0 15 -2
4 -9 -11 -7 -10 -11 5 -20 18 -10 18 -10 -1 -11 -15 0 -17 -2 -6 -9 8 -5 12
-18 8 -30 -3 -12 -1 -21 5 -21 5 0 6 -5 3 -10 -4 -6 -1 -18 7 -27 9 -12 9 -15
1 -9 -7 4 -13 2 -13 -3 0 -6 7 -11 15 -11 9 0 12 -6 9 -15 -4 -8 -2 -15 4 -15
12 0 10 -33 -3 -42 -6 -5 -4 -8 5 -8 10 0 15 -11 16 -38 1 -20 5 -64 9 -97 4
-33 7 -70 7 -82 0 -13 5 -23 10 -23 5 0 7 -4 3 -9 -3 -6 -7 -54 -9 -108 -1
-61 -10 -119 -21 -153 -25 -74 -108 -209 -172 -278 -18 -19 -17 -38 0 -23 8 6
17 8 20 4 4 -3 7 -1 7 4 0 6 16 28 35 47 19 20 35 39 35 42 0 3 14 25 30 49
17 24 30 48 30 53 0 5 9 17 20 27 11 10 18 21 15 23 -3 3 2 16 10 29 9 13 12
23 8 23 -5 0 -3 4 2 8 14 10 97 207 97 229 0 4 5 14 11 22 10 12 9 13 -2 7 -8
-6 -7 0 4 18 10 14 15 26 12 26 -3 0 -2 14 3 32 24 81 34 278 15 278 -7 0 -7
3 0 8 9 6 11 39 5 67 -3 14 -2 71 3 125 3 41 26 103 27 72 0 -8 5 -12 12 -10
7 3 25 -7 41 -21 54 -49 108 -101 103 -101 -3 0 6 -12 19 -26 14 -15 25 -33
25 -40 0 -8 4 -14 8 -14 5 0 17 -16 28 -35 10 -19 23 -35 28 -35 5 0 6 -3 3
-7 -4 -3 -3 -11 2 -17 5 -6 21 -47 36 -91 24 -70 27 -96 28 -205 0 -69 -3
-154 -6 -190 -16 -146 -17 -152 -41 -275 -11 -53 -21 -84 -43 -127 -13 -27
-19 -48 -14 -48 5 0 4 -11 -2 -25 -7 -14 -15 -25 -19 -25 -3 0 -4 -9 -1 -20 8
-28 -93 -214 -131 -241 -5 -4 -5 -12 -2 -18 4 -6 0 -11 -9 -11 -8 0 -20 -11
-27 -25 -6 -13 -15 -22 -19 -19 -9 5 -13 -11 -9 -31 1 -5 -1 -7 -5 -3 -9 9
-26 -8 -51 -52 -10 -19 -29 -46 -41 -60 -13 -13 -23 -28 -23 -32 0 -3 -6 -13
-13 -20 -17 -18 -136 -258 -140 -283 -1 -11 -7 -26 -11 -34 -7 -10 -5 -12 3
-6 9 5 10 2 3 -11 -5 -11 -16 -32 -23 -49 -33 -75 -66 -79 -102 -14 -29 52
-66 87 -125 116 -46 22 -61 25 -114 19 -56 -6 -164 -47 -179 -69 -4 -5 -14 2
-24 16 -12 19 -14 30 -6 45 16 30 6 67 -56 212 -9 19 -35 72 -60 117 -24 45
-43 84 -41 87 2 2 -4 12 -13 22 -9 11 -32 49 -53 87 -20 37 -42 67 -48 67 -6
0 -9 3 -5 6 5 5 -32 64 -53 84 -3 3 -14 18 -24 35 -11 16 -23 34 -28 40 -20
24 -58 87 -58 95 0 5 -8 24 -18 42 -10 18 -22 46 -26 61 -3 15 -10 26 -14 23
-4 -2 -8 3 -9 12 -1 9 -3 29 -6 44 -2 15 0 25 4 22 5 -3 9 -1 9 5 0 5 9 9 20
8 11 -1 20 -4 20 -8 0 -4 26 -10 58 -14 31 -3 75 -9 97 -11 21 -3 41 -7 43 -9
3 -2 13 0 23 6 14 7 19 6 19 -3 0 -9 3 -9 10 2 6 10 10 11 10 3 0 -7 5 -13 11
-13 6 0 8 7 5 16 -4 10 -2 13 7 7 6 -4 29 -9 51 -10 62 -4 187 -92 310 -218
38 -38 73 -69 78 -68 4 2 7 -1 5 -7 -1 -5 22 -34 52 -64 44 -44 56 -52 66 -42
10 10 11 25 3 62 -5 27 -12 56 -15 64 -4 8 -7 22 -8 30 -1 8 -7 29 -15 45 -7
17 -19 46 -27 65 -24 57 -62 129 -79 148 -88 101 -125 141 -159 175 -49 49
-184 139 -196 131 -5 -3 -8 -1 -7 4 2 5 -17 27 -41 50 -37 35 -42 43 -31 57 7
8 9 15 5 15 -4 0 -2 7 5 15 7 8 9 15 4 15 -5 0 -1 5 9 11 9 6 15 14 12 19 -3
5 5 17 18 27 23 18 27 24 27 44 0 5 5 7 10 4 6 -3 13 1 16 9 3 9 10 13 15 10
5 -3 9 2 9 10 0 8 9 17 20 21 22 7 60 -10 60 -27 0 -6 3 -9 6 -5 4 3 21 -5 38
-18 67 -51 216 -103 216 -75 0 6 -10 10 -23 10 -26 0 -77 21 -77 33 0 4 -5 7
-11 7 -14 0 -87 79 -95 103 -3 9 -10 17 -15 17 -6 0 -7 5 -4 10 3 6 1 10 -4
10 -6 0 -10 3 -10 8 4 21 -2 32 -13 26 -6 -4 -3 8 9 27 66 110 95 165 100 192
4 22 3 28 -6 23 -6 -4 -9 -12 -6 -17 4 -5 1 -9 -4 -9 -6 0 -11 -9 -11 -20 0
-10 -8 -24 -17 -29 -10 -6 -15 -11 -11 -11 4 0 -6 -23 -22 -50 -17 -28 -30
-54 -30 -59 0 -4 -7 -8 -15 -8 -8 0 -15 6 -15 14 0 7 -4 13 -8 13 -10 0 -12
18 -12 69 1 42 17 74 34 68 7 -3 13 1 13 9 0 9 -7 13 -16 9 -9 -3 -6 3 7 14
15 13 18 21 10 24 -12 5 16 11 35 8 4 0 7 4 7 9 0 6 -5 10 -11 10 -5 0 -7 5
-4 10 4 6 11 8 16 5 13 -9 11 9 -3 25 -7 7 2 3 20 -9 17 -12 32 -31 32 -42z
m420 -19 c0 -5 -2 -10 -4 -10 -3 0 -8 5 -11 10 -3 6 -1 10 4 10 6 0 11 -4 11
-10z m-1063 -157 c1 -24 -19 -93 -26 -93 -4 0 -17 -20 -31 -45 -14 -25 -28
-45 -32 -45 -5 0 -8 -7 -8 -15 0 -8 -4 -15 -8 -15 -5 0 -15 -12 -23 -27 -25
-49 -81 -118 -102 -126 -11 -4 -25 -3 -30 2 -7 7 -15 7 -24 0 -10 -9 -13 -7
-13 8 0 11 -3 23 -7 27 -4 4 -9 19 -11 34 -2 15 -9 30 -15 34 -7 4 -8 8 -4 8
4 0 2 10 -5 23 -7 12 -14 27 -14 32 -1 6 -3 12 -4 15 -7 19 -5 56 4 65 11 9
19 12 56 20 8 2 15 4 15 5 0 1 7 3 15 5 8 2 47 16 85 30 39 13 78 25 88 25 9
0 17 5 17 10 0 6 8 10 18 10 10 0 27 7 38 15 10 8 19 15 20 15 0 0 1 -8 1 -17z"/>
<path d="M1820 6065 c-6 -8 -22 -17 -33 -21 -12 -4 -33 -15 -47 -24 -14 -10
-28 -19 -32 -19 -15 -4 -173 -80 -166 -81 15 0 143 53 153 64 10 11 30 18 52
19 7 0 15 7 17 14 3 8 10 11 16 8 5 -3 10 -2 10 4 0 5 9 12 19 16 11 3 22 12
25 20 7 19 2 19 -14 0z"/>
<path d="M1466 5912 c-3 -5 1 -9 9 -9 8 0 12 4 9 9 -3 4 -7 8 -9 8 -2 0 -6 -4
-9 -8z"/>
</g>
</svg>
